G04 EAGLE Gerber RS-274X export*
G75*
%MOMM*%
%FSLAX34Y34*%
%LPD*%
%IN*%
%IPPOS*%
%AMOC8*
5,1,8,0,0,1.08239X$1,22.5*%
G01*
%ADD10C,0.254000*%


D10*
X0Y0D02*
X1499670Y0D01*
X1499670Y1005080D01*
X0Y1005080D01*
X0Y0D01*
X58600Y964581D02*
X58525Y963344D01*
X58376Y962114D01*
X58153Y960895D01*
X57856Y959693D01*
X57488Y958510D01*
X57048Y957351D01*
X56540Y956222D01*
X55964Y955125D01*
X55323Y954064D01*
X54619Y953045D01*
X53855Y952070D01*
X53034Y951142D01*
X52158Y950266D01*
X51230Y949445D01*
X50255Y948681D01*
X49236Y947977D01*
X48175Y947336D01*
X47078Y946760D01*
X45949Y946252D01*
X44790Y945813D01*
X43607Y945444D01*
X42405Y945147D01*
X41186Y944924D01*
X39956Y944775D01*
X38719Y944700D01*
X37481Y944700D01*
X36244Y944775D01*
X35014Y944924D01*
X33795Y945147D01*
X32593Y945444D01*
X31410Y945813D01*
X30251Y946252D01*
X29122Y946760D01*
X28025Y947336D01*
X26964Y947977D01*
X25945Y948681D01*
X24970Y949445D01*
X24042Y950266D01*
X23166Y951142D01*
X22345Y952070D01*
X21581Y953045D01*
X20877Y954064D01*
X20236Y955125D01*
X19660Y956222D01*
X19152Y957351D01*
X18713Y958510D01*
X18344Y959693D01*
X18047Y960895D01*
X17824Y962114D01*
X17675Y963344D01*
X17600Y964581D01*
X17600Y965819D01*
X17675Y967056D01*
X17824Y968286D01*
X18047Y969505D01*
X18344Y970707D01*
X18713Y971890D01*
X19152Y973049D01*
X19660Y974178D01*
X20236Y975275D01*
X20877Y976336D01*
X21581Y977355D01*
X22345Y978330D01*
X23166Y979258D01*
X24042Y980134D01*
X24970Y980955D01*
X25945Y981719D01*
X26964Y982423D01*
X28025Y983064D01*
X29122Y983640D01*
X30251Y984148D01*
X31410Y984588D01*
X32593Y984956D01*
X33795Y985253D01*
X35014Y985476D01*
X36244Y985625D01*
X37481Y985700D01*
X38719Y985700D01*
X39956Y985625D01*
X41186Y985476D01*
X42405Y985253D01*
X43607Y984956D01*
X44790Y984588D01*
X45949Y984148D01*
X47078Y983640D01*
X48175Y983064D01*
X49236Y982423D01*
X50255Y981719D01*
X51230Y980955D01*
X52158Y980134D01*
X53034Y979258D01*
X53855Y978330D01*
X54619Y977355D01*
X55323Y976336D01*
X55964Y975275D01*
X56540Y974178D01*
X57048Y973049D01*
X57488Y971890D01*
X57856Y970707D01*
X58153Y969505D01*
X58376Y968286D01*
X58525Y967056D01*
X58600Y965819D01*
X58600Y964581D01*
X1481000Y37481D02*
X1480925Y36244D01*
X1480776Y35014D01*
X1480553Y33795D01*
X1480256Y32593D01*
X1479888Y31410D01*
X1479448Y30251D01*
X1478940Y29122D01*
X1478364Y28025D01*
X1477723Y26964D01*
X1477019Y25945D01*
X1476255Y24970D01*
X1475434Y24042D01*
X1474558Y23166D01*
X1473630Y22345D01*
X1472655Y21581D01*
X1471636Y20877D01*
X1470575Y20236D01*
X1469478Y19660D01*
X1468349Y19152D01*
X1467190Y18713D01*
X1466007Y18344D01*
X1464805Y18047D01*
X1463586Y17824D01*
X1462356Y17675D01*
X1461119Y17600D01*
X1459881Y17600D01*
X1458644Y17675D01*
X1457414Y17824D01*
X1456195Y18047D01*
X1454993Y18344D01*
X1453810Y18713D01*
X1452651Y19152D01*
X1451522Y19660D01*
X1450425Y20236D01*
X1449364Y20877D01*
X1448345Y21581D01*
X1447370Y22345D01*
X1446442Y23166D01*
X1445566Y24042D01*
X1444745Y24970D01*
X1443981Y25945D01*
X1443277Y26964D01*
X1442636Y28025D01*
X1442060Y29122D01*
X1441552Y30251D01*
X1441113Y31410D01*
X1440744Y32593D01*
X1440447Y33795D01*
X1440224Y35014D01*
X1440075Y36244D01*
X1440000Y37481D01*
X1440000Y38719D01*
X1440075Y39956D01*
X1440224Y41186D01*
X1440447Y42405D01*
X1440744Y43607D01*
X1441113Y44790D01*
X1441552Y45949D01*
X1442060Y47078D01*
X1442636Y48175D01*
X1443277Y49236D01*
X1443981Y50255D01*
X1444745Y51230D01*
X1445566Y52158D01*
X1446442Y53034D01*
X1447370Y53855D01*
X1448345Y54619D01*
X1449364Y55323D01*
X1450425Y55964D01*
X1451522Y56540D01*
X1452651Y57048D01*
X1453810Y57488D01*
X1454993Y57856D01*
X1456195Y58153D01*
X1457414Y58376D01*
X1458644Y58525D01*
X1459881Y58600D01*
X1461119Y58600D01*
X1462356Y58525D01*
X1463586Y58376D01*
X1464805Y58153D01*
X1466007Y57856D01*
X1467190Y57488D01*
X1468349Y57048D01*
X1469478Y56540D01*
X1470575Y55964D01*
X1471636Y55323D01*
X1472655Y54619D01*
X1473630Y53855D01*
X1474558Y53034D01*
X1475434Y52158D01*
X1476255Y51230D01*
X1477019Y50255D01*
X1477723Y49236D01*
X1478364Y48175D01*
X1478940Y47078D01*
X1479448Y45949D01*
X1479888Y44790D01*
X1480256Y43607D01*
X1480553Y42405D01*
X1480776Y41186D01*
X1480925Y39956D01*
X1481000Y38719D01*
X1481000Y37481D01*
X291860Y680184D02*
X291784Y679116D01*
X291631Y678055D01*
X291403Y677008D01*
X291101Y675980D01*
X290727Y674976D01*
X290282Y674001D01*
X289768Y673061D01*
X289189Y672160D01*
X288547Y671302D01*
X287845Y670492D01*
X287088Y669735D01*
X286278Y669033D01*
X285420Y668391D01*
X284519Y667812D01*
X283579Y667298D01*
X282604Y666853D01*
X281600Y666479D01*
X280572Y666177D01*
X279525Y665949D01*
X278464Y665796D01*
X277396Y665720D01*
X276324Y665720D01*
X275256Y665796D01*
X274195Y665949D01*
X273148Y666177D01*
X272120Y666479D01*
X271116Y666853D01*
X270141Y667298D01*
X269201Y667812D01*
X268300Y668391D01*
X267442Y669033D01*
X266632Y669735D01*
X265875Y670492D01*
X265173Y671302D01*
X264531Y672160D01*
X263952Y673061D01*
X263438Y674001D01*
X262993Y674976D01*
X262619Y675980D01*
X262317Y677008D01*
X262089Y678055D01*
X261936Y679116D01*
X261860Y680184D01*
X261860Y681256D01*
X261936Y682324D01*
X262089Y683385D01*
X262317Y684432D01*
X262619Y685460D01*
X262993Y686464D01*
X263438Y687439D01*
X263952Y688379D01*
X264531Y689280D01*
X265173Y690138D01*
X265875Y690948D01*
X266632Y691705D01*
X267442Y692407D01*
X268300Y693049D01*
X269201Y693628D01*
X270141Y694142D01*
X271116Y694587D01*
X272120Y694961D01*
X273148Y695263D01*
X274195Y695491D01*
X275256Y695644D01*
X276324Y695720D01*
X277396Y695720D01*
X278464Y695644D01*
X279525Y695491D01*
X280572Y695263D01*
X281600Y694961D01*
X282604Y694587D01*
X283579Y694142D01*
X284519Y693628D01*
X285420Y693049D01*
X286278Y692407D01*
X287088Y691705D01*
X287845Y690948D01*
X288547Y690138D01*
X289189Y689280D01*
X289768Y688379D01*
X290282Y687439D01*
X290727Y686464D01*
X291101Y685460D01*
X291403Y684432D01*
X291631Y683385D01*
X291784Y682324D01*
X291860Y681256D01*
X291860Y680184D01*
X291860Y837664D02*
X291784Y836596D01*
X291631Y835535D01*
X291403Y834488D01*
X291101Y833460D01*
X290727Y832456D01*
X290282Y831481D01*
X289768Y830541D01*
X289189Y829640D01*
X288547Y828782D01*
X287845Y827972D01*
X287088Y827215D01*
X286278Y826513D01*
X285420Y825871D01*
X284519Y825292D01*
X283579Y824778D01*
X282604Y824333D01*
X281600Y823959D01*
X280572Y823657D01*
X279525Y823429D01*
X278464Y823276D01*
X277396Y823200D01*
X276324Y823200D01*
X275256Y823276D01*
X274195Y823429D01*
X273148Y823657D01*
X272120Y823959D01*
X271116Y824333D01*
X270141Y824778D01*
X269201Y825292D01*
X268300Y825871D01*
X267442Y826513D01*
X266632Y827215D01*
X265875Y827972D01*
X265173Y828782D01*
X264531Y829640D01*
X263952Y830541D01*
X263438Y831481D01*
X262993Y832456D01*
X262619Y833460D01*
X262317Y834488D01*
X262089Y835535D01*
X261936Y836596D01*
X261860Y837664D01*
X261860Y838736D01*
X261936Y839804D01*
X262089Y840865D01*
X262317Y841912D01*
X262619Y842940D01*
X262993Y843944D01*
X263438Y844919D01*
X263952Y845859D01*
X264531Y846760D01*
X265173Y847618D01*
X265875Y848428D01*
X266632Y849185D01*
X267442Y849887D01*
X268300Y850529D01*
X269201Y851108D01*
X270141Y851622D01*
X271116Y852067D01*
X272120Y852441D01*
X273148Y852743D01*
X274195Y852971D01*
X275256Y853124D01*
X276324Y853200D01*
X277396Y853200D01*
X278464Y853124D01*
X279525Y852971D01*
X280572Y852743D01*
X281600Y852441D01*
X282604Y852067D01*
X283579Y851622D01*
X284519Y851108D01*
X285420Y850529D01*
X286278Y849887D01*
X287088Y849185D01*
X287845Y848428D01*
X288547Y847618D01*
X289189Y846760D01*
X289768Y845859D01*
X290282Y844919D01*
X290727Y843944D01*
X291101Y842940D01*
X291403Y841912D01*
X291631Y840865D01*
X291784Y839804D01*
X291860Y838736D01*
X291860Y837664D01*
X281024Y596140D02*
X282069Y596209D01*
X283108Y596345D01*
X284135Y596550D01*
X285147Y596821D01*
X286139Y597157D01*
X287107Y597558D01*
X288046Y598022D01*
X288954Y598546D01*
X289825Y599128D01*
X290656Y599765D01*
X291443Y600456D01*
X292184Y601197D01*
X292875Y601984D01*
X293513Y602815D01*
X294095Y603686D01*
X294618Y604594D01*
X295082Y605533D01*
X295483Y606501D01*
X295819Y607493D01*
X296090Y608505D01*
X296295Y609532D01*
X296432Y610571D01*
X296500Y611616D01*
X296500Y612664D01*
X296432Y613709D01*
X296295Y614748D01*
X296090Y615775D01*
X295819Y616787D01*
X295483Y617779D01*
X295082Y618747D01*
X294618Y619686D01*
X294095Y620594D01*
X293513Y621465D01*
X292875Y622296D01*
X292184Y623083D01*
X291443Y623824D01*
X290656Y624515D01*
X289825Y625153D01*
X288954Y625735D01*
X288046Y626258D01*
X287107Y626722D01*
X286139Y627123D01*
X285147Y627459D01*
X284135Y627730D01*
X283108Y627935D01*
X282069Y628072D01*
X281024Y628140D01*
X279976Y628140D01*
X278931Y628072D01*
X277892Y627935D01*
X276865Y627730D01*
X275853Y627459D01*
X274861Y627123D01*
X273893Y626722D01*
X272954Y626258D01*
X272046Y625735D01*
X271175Y625153D01*
X270344Y624515D01*
X269557Y623824D01*
X268816Y623083D01*
X268125Y622296D01*
X267488Y621465D01*
X266906Y620594D01*
X266382Y619686D01*
X265918Y618747D01*
X265517Y617779D01*
X265181Y616787D01*
X264910Y615775D01*
X264705Y614748D01*
X264569Y613709D01*
X264500Y612664D01*
X264500Y611616D01*
X264569Y610571D01*
X264705Y609532D01*
X264910Y608505D01*
X265181Y607493D01*
X265517Y606501D01*
X265918Y605533D01*
X266382Y604594D01*
X266906Y603686D01*
X267488Y602815D01*
X268125Y601984D01*
X268816Y601197D01*
X269557Y600456D01*
X270344Y599765D01*
X271175Y599128D01*
X272046Y598546D01*
X272954Y598022D01*
X273893Y597558D01*
X274861Y597157D01*
X275853Y596821D01*
X276865Y596550D01*
X277892Y596345D01*
X278931Y596209D01*
X279976Y596140D01*
X281024Y596140D01*
X801724Y545340D02*
X802769Y545409D01*
X803808Y545545D01*
X804835Y545750D01*
X805847Y546021D01*
X806839Y546357D01*
X807807Y546758D01*
X808746Y547222D01*
X809654Y547746D01*
X810525Y548328D01*
X811356Y548965D01*
X812143Y549656D01*
X812884Y550397D01*
X813575Y551184D01*
X814213Y552015D01*
X814795Y552886D01*
X815318Y553794D01*
X815782Y554733D01*
X816183Y555701D01*
X816519Y556693D01*
X816790Y557705D01*
X816995Y558732D01*
X817132Y559771D01*
X817200Y560816D01*
X817200Y561864D01*
X817132Y562909D01*
X816995Y563948D01*
X816790Y564975D01*
X816519Y565987D01*
X816183Y566979D01*
X815782Y567947D01*
X815318Y568886D01*
X814795Y569794D01*
X814213Y570665D01*
X813575Y571496D01*
X812884Y572283D01*
X812143Y573024D01*
X811356Y573715D01*
X810525Y574353D01*
X809654Y574935D01*
X808746Y575458D01*
X807807Y575922D01*
X806839Y576323D01*
X805847Y576659D01*
X804835Y576930D01*
X803808Y577135D01*
X802769Y577272D01*
X801724Y577340D01*
X800676Y577340D01*
X799631Y577272D01*
X798592Y577135D01*
X797565Y576930D01*
X796553Y576659D01*
X795561Y576323D01*
X794593Y575922D01*
X793654Y575458D01*
X792746Y574935D01*
X791875Y574353D01*
X791044Y573715D01*
X790257Y573024D01*
X789516Y572283D01*
X788825Y571496D01*
X788188Y570665D01*
X787606Y569794D01*
X787082Y568886D01*
X786618Y567947D01*
X786217Y566979D01*
X785881Y565987D01*
X785610Y564975D01*
X785405Y563948D01*
X785269Y562909D01*
X785200Y561864D01*
X785200Y560816D01*
X785269Y559771D01*
X785405Y558732D01*
X785610Y557705D01*
X785881Y556693D01*
X786217Y555701D01*
X786618Y554733D01*
X787082Y553794D01*
X787606Y552886D01*
X788188Y552015D01*
X788825Y551184D01*
X789516Y550397D01*
X790257Y549656D01*
X791044Y548965D01*
X791875Y548328D01*
X792746Y547746D01*
X793654Y547222D01*
X794593Y546758D01*
X795561Y546357D01*
X796553Y546021D01*
X797565Y545750D01*
X798592Y545545D01*
X799631Y545409D01*
X800676Y545340D01*
X801724Y545340D01*
X801724Y265940D02*
X802769Y266009D01*
X803808Y266145D01*
X804835Y266350D01*
X805847Y266621D01*
X806839Y266957D01*
X807807Y267358D01*
X808746Y267822D01*
X809654Y268346D01*
X810525Y268928D01*
X811356Y269565D01*
X812143Y270256D01*
X812884Y270997D01*
X813575Y271784D01*
X814213Y272615D01*
X814795Y273486D01*
X815318Y274394D01*
X815782Y275333D01*
X816183Y276301D01*
X816519Y277293D01*
X816790Y278305D01*
X816995Y279332D01*
X817132Y280371D01*
X817200Y281416D01*
X817200Y282464D01*
X817132Y283509D01*
X816995Y284548D01*
X816790Y285575D01*
X816519Y286587D01*
X816183Y287579D01*
X815782Y288547D01*
X815318Y289486D01*
X814795Y290394D01*
X814213Y291265D01*
X813575Y292096D01*
X812884Y292883D01*
X812143Y293624D01*
X811356Y294315D01*
X810525Y294953D01*
X809654Y295535D01*
X808746Y296058D01*
X807807Y296522D01*
X806839Y296923D01*
X805847Y297259D01*
X804835Y297530D01*
X803808Y297735D01*
X802769Y297872D01*
X801724Y297940D01*
X800676Y297940D01*
X799631Y297872D01*
X798592Y297735D01*
X797565Y297530D01*
X796553Y297259D01*
X795561Y296923D01*
X794593Y296522D01*
X793654Y296058D01*
X792746Y295535D01*
X791875Y294953D01*
X791044Y294315D01*
X790257Y293624D01*
X789516Y292883D01*
X788825Y292096D01*
X788188Y291265D01*
X787606Y290394D01*
X787082Y289486D01*
X786618Y288547D01*
X786217Y287579D01*
X785881Y286587D01*
X785610Y285575D01*
X785405Y284548D01*
X785269Y283509D01*
X785200Y282464D01*
X785200Y281416D01*
X785269Y280371D01*
X785405Y279332D01*
X785610Y278305D01*
X785881Y277293D01*
X786217Y276301D01*
X786618Y275333D01*
X787082Y274394D01*
X787606Y273486D01*
X788188Y272615D01*
X788825Y271784D01*
X789516Y270997D01*
X790257Y270256D01*
X791044Y269565D01*
X791875Y268928D01*
X792746Y268346D01*
X793654Y267822D01*
X794593Y267358D01*
X795561Y266957D01*
X796553Y266621D01*
X797565Y266350D01*
X798592Y266145D01*
X799631Y266009D01*
X800676Y265940D01*
X801724Y265940D01*
X293724Y113540D02*
X294769Y113609D01*
X295808Y113745D01*
X296835Y113950D01*
X297847Y114221D01*
X298839Y114557D01*
X299807Y114958D01*
X300746Y115422D01*
X301654Y115946D01*
X302525Y116528D01*
X303356Y117165D01*
X304143Y117856D01*
X304884Y118597D01*
X305575Y119384D01*
X306213Y120215D01*
X306795Y121086D01*
X307318Y121994D01*
X307782Y122933D01*
X308183Y123901D01*
X308519Y124893D01*
X308790Y125905D01*
X308995Y126932D01*
X309132Y127971D01*
X309200Y129016D01*
X309200Y130064D01*
X309132Y131109D01*
X308995Y132148D01*
X308790Y133175D01*
X308519Y134187D01*
X308183Y135179D01*
X307782Y136147D01*
X307318Y137086D01*
X306795Y137994D01*
X306213Y138865D01*
X305575Y139696D01*
X304884Y140483D01*
X304143Y141224D01*
X303356Y141915D01*
X302525Y142553D01*
X301654Y143135D01*
X300746Y143658D01*
X299807Y144122D01*
X298839Y144523D01*
X297847Y144859D01*
X296835Y145130D01*
X295808Y145335D01*
X294769Y145472D01*
X293724Y145540D01*
X292676Y145540D01*
X291631Y145472D01*
X290592Y145335D01*
X289565Y145130D01*
X288553Y144859D01*
X287561Y144523D01*
X286593Y144122D01*
X285654Y143658D01*
X284746Y143135D01*
X283875Y142553D01*
X283044Y141915D01*
X282257Y141224D01*
X281516Y140483D01*
X280825Y139696D01*
X280188Y138865D01*
X279606Y137994D01*
X279082Y137086D01*
X278618Y136147D01*
X278217Y135179D01*
X277881Y134187D01*
X277610Y133175D01*
X277405Y132148D01*
X277269Y131109D01*
X277200Y130064D01*
X277200Y129016D01*
X277269Y127971D01*
X277405Y126932D01*
X277610Y125905D01*
X277881Y124893D01*
X278217Y123901D01*
X278618Y122933D01*
X279082Y121994D01*
X279606Y121086D01*
X280188Y120215D01*
X280825Y119384D01*
X281516Y118597D01*
X282257Y117856D01*
X283044Y117165D01*
X283875Y116528D01*
X284746Y115946D01*
X285654Y115422D01*
X286593Y114958D01*
X287561Y114557D01*
X288553Y114221D01*
X289565Y113950D01*
X290592Y113745D01*
X291631Y113609D01*
X292676Y113540D01*
X293724Y113540D01*
X1106524Y596140D02*
X1107569Y596209D01*
X1108608Y596345D01*
X1109635Y596550D01*
X1110647Y596821D01*
X1111639Y597157D01*
X1112607Y597558D01*
X1113546Y598022D01*
X1114454Y598546D01*
X1115325Y599128D01*
X1116156Y599765D01*
X1116943Y600456D01*
X1117684Y601197D01*
X1118375Y601984D01*
X1119013Y602815D01*
X1119595Y603686D01*
X1120118Y604594D01*
X1120582Y605533D01*
X1120983Y606501D01*
X1121319Y607493D01*
X1121590Y608505D01*
X1121795Y609532D01*
X1121932Y610571D01*
X1122000Y611616D01*
X1122000Y612664D01*
X1121932Y613709D01*
X1121795Y614748D01*
X1121590Y615775D01*
X1121319Y616787D01*
X1120983Y617779D01*
X1120582Y618747D01*
X1120118Y619686D01*
X1119595Y620594D01*
X1119013Y621465D01*
X1118375Y622296D01*
X1117684Y623083D01*
X1116943Y623824D01*
X1116156Y624515D01*
X1115325Y625153D01*
X1114454Y625735D01*
X1113546Y626258D01*
X1112607Y626722D01*
X1111639Y627123D01*
X1110647Y627459D01*
X1109635Y627730D01*
X1108608Y627935D01*
X1107569Y628072D01*
X1106524Y628140D01*
X1105476Y628140D01*
X1104431Y628072D01*
X1103392Y627935D01*
X1102365Y627730D01*
X1101353Y627459D01*
X1100361Y627123D01*
X1099393Y626722D01*
X1098454Y626258D01*
X1097546Y625735D01*
X1096675Y625153D01*
X1095844Y624515D01*
X1095057Y623824D01*
X1094316Y623083D01*
X1093625Y622296D01*
X1092988Y621465D01*
X1092406Y620594D01*
X1091882Y619686D01*
X1091418Y618747D01*
X1091017Y617779D01*
X1090681Y616787D01*
X1090410Y615775D01*
X1090205Y614748D01*
X1090069Y613709D01*
X1090000Y612664D01*
X1090000Y611616D01*
X1090069Y610571D01*
X1090205Y609532D01*
X1090410Y608505D01*
X1090681Y607493D01*
X1091017Y606501D01*
X1091418Y605533D01*
X1091882Y604594D01*
X1092406Y603686D01*
X1092988Y602815D01*
X1093625Y601984D01*
X1094316Y601197D01*
X1095057Y600456D01*
X1095844Y599765D01*
X1096675Y599128D01*
X1097546Y598546D01*
X1098454Y598022D01*
X1099393Y597558D01*
X1100361Y597157D01*
X1101353Y596821D01*
X1102365Y596550D01*
X1103392Y596345D01*
X1104431Y596209D01*
X1105476Y596140D01*
X1106524Y596140D01*
X1043024Y113540D02*
X1044069Y113609D01*
X1045108Y113745D01*
X1046135Y113950D01*
X1047147Y114221D01*
X1048139Y114557D01*
X1049107Y114958D01*
X1050046Y115422D01*
X1050954Y115946D01*
X1051825Y116528D01*
X1052656Y117165D01*
X1053443Y117856D01*
X1054184Y118597D01*
X1054875Y119384D01*
X1055513Y120215D01*
X1056095Y121086D01*
X1056618Y121994D01*
X1057082Y122933D01*
X1057483Y123901D01*
X1057819Y124893D01*
X1058090Y125905D01*
X1058295Y126932D01*
X1058432Y127971D01*
X1058500Y129016D01*
X1058500Y130064D01*
X1058432Y131109D01*
X1058295Y132148D01*
X1058090Y133175D01*
X1057819Y134187D01*
X1057483Y135179D01*
X1057082Y136147D01*
X1056618Y137086D01*
X1056095Y137994D01*
X1055513Y138865D01*
X1054875Y139696D01*
X1054184Y140483D01*
X1053443Y141224D01*
X1052656Y141915D01*
X1051825Y142553D01*
X1050954Y143135D01*
X1050046Y143658D01*
X1049107Y144122D01*
X1048139Y144523D01*
X1047147Y144859D01*
X1046135Y145130D01*
X1045108Y145335D01*
X1044069Y145472D01*
X1043024Y145540D01*
X1041976Y145540D01*
X1040931Y145472D01*
X1039892Y145335D01*
X1038865Y145130D01*
X1037853Y144859D01*
X1036861Y144523D01*
X1035893Y144122D01*
X1034954Y143658D01*
X1034046Y143135D01*
X1033175Y142553D01*
X1032344Y141915D01*
X1031557Y141224D01*
X1030816Y140483D01*
X1030125Y139696D01*
X1029488Y138865D01*
X1028906Y137994D01*
X1028382Y137086D01*
X1027918Y136147D01*
X1027517Y135179D01*
X1027181Y134187D01*
X1026910Y133175D01*
X1026705Y132148D01*
X1026569Y131109D01*
X1026500Y130064D01*
X1026500Y129016D01*
X1026569Y127971D01*
X1026705Y126932D01*
X1026910Y125905D01*
X1027181Y124893D01*
X1027517Y123901D01*
X1027918Y122933D01*
X1028382Y121994D01*
X1028906Y121086D01*
X1029488Y120215D01*
X1030125Y119384D01*
X1030816Y118597D01*
X1031557Y117856D01*
X1032344Y117165D01*
X1033175Y116528D01*
X1034046Y115946D01*
X1034954Y115422D01*
X1035893Y114958D01*
X1036861Y114557D01*
X1037853Y114221D01*
X1038865Y113950D01*
X1039892Y113745D01*
X1040931Y113609D01*
X1041976Y113540D01*
X1043024Y113540D01*
X80468Y874244D02*
X79406Y874314D01*
X78352Y874452D01*
X77308Y874660D01*
X76280Y874935D01*
X75273Y875277D01*
X74290Y875685D01*
X73336Y876155D01*
X72414Y876687D01*
X71530Y877278D01*
X70686Y877926D01*
X69886Y878627D01*
X69133Y879380D01*
X68432Y880180D01*
X67784Y881024D01*
X67193Y881908D01*
X66661Y882830D01*
X66191Y883784D01*
X65783Y884767D01*
X65441Y885774D01*
X65166Y886802D01*
X64958Y887846D01*
X64820Y888900D01*
X64750Y889962D01*
X64750Y891026D01*
X64820Y892088D01*
X64958Y893142D01*
X65166Y894186D01*
X65441Y895214D01*
X65783Y896221D01*
X66191Y897204D01*
X66661Y898158D01*
X67193Y899080D01*
X67784Y899964D01*
X68432Y900808D01*
X69133Y901608D01*
X69886Y902361D01*
X70686Y903062D01*
X71530Y903710D01*
X72414Y904301D01*
X73336Y904833D01*
X74290Y905303D01*
X75273Y905711D01*
X76280Y906053D01*
X77308Y906328D01*
X78352Y906536D01*
X79406Y906674D01*
X80468Y906744D01*
X81532Y906744D01*
X82594Y906674D01*
X83648Y906536D01*
X84692Y906328D01*
X85720Y906053D01*
X86727Y905711D01*
X87710Y905303D01*
X88664Y904833D01*
X89586Y904301D01*
X90470Y903710D01*
X91314Y903062D01*
X92114Y902361D01*
X92867Y901608D01*
X93568Y900808D01*
X94216Y899964D01*
X94807Y899080D01*
X95339Y898158D01*
X95809Y897204D01*
X96217Y896221D01*
X96559Y895214D01*
X96834Y894186D01*
X97042Y893142D01*
X97180Y892088D01*
X97250Y891026D01*
X97250Y889962D01*
X97180Y888900D01*
X97042Y887846D01*
X96834Y886802D01*
X96559Y885774D01*
X96217Y884767D01*
X95809Y883784D01*
X95339Y882830D01*
X94807Y881908D01*
X94216Y881024D01*
X93568Y880180D01*
X92867Y879380D01*
X92114Y878627D01*
X91314Y877926D01*
X90470Y877278D01*
X89586Y876687D01*
X88664Y876155D01*
X87710Y875685D01*
X86727Y875277D01*
X85720Y874935D01*
X84692Y874660D01*
X83648Y874452D01*
X82594Y874314D01*
X81532Y874244D01*
X80468Y874244D01*
X80468Y759944D02*
X79406Y760014D01*
X78352Y760152D01*
X77308Y760360D01*
X76280Y760635D01*
X75273Y760977D01*
X74290Y761385D01*
X73336Y761855D01*
X72414Y762387D01*
X71530Y762978D01*
X70686Y763626D01*
X69886Y764327D01*
X69133Y765080D01*
X68432Y765880D01*
X67784Y766724D01*
X67193Y767608D01*
X66661Y768530D01*
X66191Y769484D01*
X65783Y770467D01*
X65441Y771474D01*
X65166Y772502D01*
X64958Y773546D01*
X64820Y774600D01*
X64750Y775662D01*
X64750Y776726D01*
X64820Y777788D01*
X64958Y778842D01*
X65166Y779886D01*
X65441Y780914D01*
X65783Y781921D01*
X66191Y782904D01*
X66661Y783858D01*
X67193Y784780D01*
X67784Y785664D01*
X68432Y786508D01*
X69133Y787308D01*
X69886Y788061D01*
X70686Y788762D01*
X71530Y789410D01*
X72414Y790001D01*
X73336Y790533D01*
X74290Y791003D01*
X75273Y791411D01*
X76280Y791753D01*
X77308Y792028D01*
X78352Y792236D01*
X79406Y792374D01*
X80468Y792444D01*
X81532Y792444D01*
X82594Y792374D01*
X83648Y792236D01*
X84692Y792028D01*
X85720Y791753D01*
X86727Y791411D01*
X87710Y791003D01*
X88664Y790533D01*
X89586Y790001D01*
X90470Y789410D01*
X91314Y788762D01*
X92114Y788061D01*
X92867Y787308D01*
X93568Y786508D01*
X94216Y785664D01*
X94807Y784780D01*
X95339Y783858D01*
X95809Y782904D01*
X96217Y781921D01*
X96559Y780914D01*
X96834Y779886D01*
X97042Y778842D01*
X97180Y777788D01*
X97250Y776726D01*
X97250Y775662D01*
X97180Y774600D01*
X97042Y773546D01*
X96834Y772502D01*
X96559Y771474D01*
X96217Y770467D01*
X95809Y769484D01*
X95339Y768530D01*
X94807Y767608D01*
X94216Y766724D01*
X93568Y765880D01*
X92867Y765080D01*
X92114Y764327D01*
X91314Y763626D01*
X90470Y762978D01*
X89586Y762387D01*
X88664Y761855D01*
X87710Y761385D01*
X86727Y760977D01*
X85720Y760635D01*
X84692Y760360D01*
X83648Y760152D01*
X82594Y760014D01*
X81532Y759944D01*
X80468Y759944D01*
M02*
