G04 EAGLE Gerber RS-274X export*
G75*
%MOMM*%
%FSLAX34Y34*%
%LPD*%
%INSoldermask Bottom*%
%IPPOS*%
%AMOC8*
5,1,8,0,0,1.08239X$1,22.5*%
G01*
%ADD10C,4.303200*%
%ADD11C,3.203200*%
%ADD12R,1.561200X1.561200*%
%ADD13C,1.561200*%
%ADD14C,3.403200*%
%ADD15C,1.727200*%
%ADD16R,1.981200X1.981200*%
%ADD17R,2.753200X2.753200*%
%ADD18C,2.753200*%
%ADD19C,1.711200*%
%ADD20R,1.711200X1.711200*%
%ADD21C,3.453200*%
%ADD22C,3.098200*%
%ADD23C,1.471200*%
%ADD24R,1.471200X1.471200*%
%ADD25R,2.978200X2.978200*%
%ADD26C,2.978200*%
%ADD27C,1.421200*%
%ADD28R,1.853200X1.853200*%


D10*
X38100Y965200D03*
X1460500Y38100D03*
D11*
X276860Y680720D03*
X276860Y838200D03*
D12*
X420200Y612140D03*
D13*
X445600Y612140D03*
X471000Y612140D03*
X496400Y612140D03*
X521800Y612140D03*
X547200Y612140D03*
X572600Y612140D03*
X598000Y612140D03*
X648800Y612140D03*
X674200Y612140D03*
X699600Y612140D03*
X725000Y612140D03*
X750400Y612140D03*
X775800Y612140D03*
X801200Y612140D03*
X826600Y612140D03*
X877400Y612140D03*
X902800Y612140D03*
X928200Y612140D03*
X953600Y612140D03*
X979000Y612140D03*
X1004400Y612140D03*
X1029800Y612140D03*
X1055200Y612140D03*
X1106000Y561340D03*
X1080600Y561340D03*
X1106000Y535940D03*
X1080600Y535940D03*
X1106000Y510540D03*
X1080600Y510540D03*
X1106000Y485140D03*
X1080600Y485140D03*
X1080600Y459740D03*
X1106000Y459740D03*
X1080600Y434340D03*
X1106000Y434340D03*
X1080600Y408940D03*
X1106000Y408940D03*
X1080600Y383540D03*
X1106000Y383540D03*
X1080600Y358140D03*
X1106000Y358140D03*
X1080600Y332740D03*
X1106000Y332740D03*
X1080600Y307340D03*
X1106000Y307340D03*
X1080600Y281940D03*
X1106000Y281940D03*
X1080600Y256540D03*
X1106000Y256540D03*
X1080600Y231140D03*
X1106000Y231140D03*
X1080600Y205740D03*
X1106000Y205740D03*
X1080600Y180340D03*
X1106000Y180340D03*
X1080600Y154940D03*
X1106000Y154940D03*
X1080600Y129540D03*
X1106000Y129540D03*
X1004400Y129540D03*
X979000Y129540D03*
X953600Y129540D03*
X928200Y129540D03*
X902800Y129540D03*
X877400Y129540D03*
X852000Y129540D03*
X826600Y129540D03*
X775800Y129540D03*
X750400Y129540D03*
X725000Y129540D03*
X699600Y129540D03*
X674200Y129540D03*
X648800Y129540D03*
X623400Y129540D03*
X598000Y129540D03*
X557360Y129540D03*
X531960Y129540D03*
X506560Y129540D03*
X481160Y129540D03*
X455760Y129540D03*
X430360Y129540D03*
X404960Y129540D03*
X379560Y129540D03*
X354160Y129540D03*
X328760Y129540D03*
D14*
X280500Y612140D03*
X801200Y561340D03*
X801200Y281940D03*
X293200Y129540D03*
X1106000Y612140D03*
X1042500Y129540D03*
D15*
X405390Y666750D02*
X390150Y666750D01*
X390150Y692150D02*
X405390Y692150D01*
X405390Y717550D02*
X390150Y717550D01*
X390150Y742950D02*
X405390Y742950D01*
X405390Y768350D02*
X390150Y768350D01*
X390150Y793750D02*
X405390Y793750D01*
X405390Y819150D02*
X390150Y819150D01*
X390150Y844550D02*
X405390Y844550D01*
D16*
X1397140Y555950D03*
X1397140Y158750D03*
X1203140Y555950D03*
X1203140Y158750D03*
D17*
X1360640Y833290D03*
D18*
X1310640Y833290D03*
D19*
X710400Y69090D03*
X735400Y69090D03*
X685400Y69090D03*
D20*
X660400Y69090D03*
D19*
X760400Y69090D03*
X785400Y69090D03*
X531330Y69430D03*
X556330Y69430D03*
X506330Y69430D03*
D20*
X481330Y69430D03*
D19*
X581330Y69430D03*
X606330Y69430D03*
D21*
X81000Y890494D03*
X81000Y776194D03*
D22*
X50500Y914594D03*
X50500Y752094D03*
D23*
X169900Y788894D03*
X144500Y801594D03*
X169900Y814294D03*
X144500Y826994D03*
X169900Y839694D03*
X144500Y852394D03*
X169900Y865094D03*
D24*
X144500Y877794D03*
D19*
X1016470Y68590D03*
X1041470Y68590D03*
X991470Y68590D03*
D20*
X966470Y68590D03*
D25*
X1234490Y830750D03*
D26*
X1139190Y830750D03*
D25*
X1043990Y830750D03*
D26*
X948690Y830750D03*
D25*
X853490Y830750D03*
D26*
X758190Y830750D03*
D25*
X662990Y830750D03*
D26*
X567690Y830750D03*
D15*
X520700Y672840D02*
X520700Y657600D01*
X495300Y657600D02*
X495300Y672840D01*
X469900Y672840D02*
X469900Y657600D01*
X444500Y657600D02*
X444500Y672840D01*
D19*
X353530Y69770D03*
X378530Y69770D03*
X328530Y69770D03*
D20*
X303530Y69770D03*
D19*
X403530Y69770D03*
X428530Y69770D03*
X888130Y68660D03*
X913130Y68660D03*
X863130Y68660D03*
D20*
X838130Y68660D03*
D17*
X1466050Y833290D03*
D18*
X1416050Y833290D03*
D27*
X170030Y698396D03*
X170030Y672996D03*
D19*
X1033950Y343100D03*
X1033950Y318100D03*
X1033950Y368100D03*
D20*
X1033950Y393100D03*
D28*
X406400Y533400D03*
X406400Y393700D03*
X227076Y700786D03*
X227076Y865632D03*
X470408Y568706D03*
X169926Y568706D03*
M02*
