M48
;GenerationSoftware,Autodesk,EAGLE,9.6.2*%
;CreationDate,2025-06-04T09:21:22Z*%
FMAT,2
ICI,OFF
METRIC,TZ,000.000
T13C0.710
T12C0.760
T11C0.850
T10C1.000
T9C1.016
T8C1.100
T7C1.700
T6C1.850
T5C1.930
T4C3.000
T3C3.200
T2C3.250
T1C4.100
%
G90
M71
T1
X3810Y96520
X146050Y3810
T2
X8100Y89049
X8100Y77619
T3
X29320Y12954
X80120Y56134
X80120Y28194
X110600Y61214
X104250Y12954
X28050Y61214
T4
X27686Y68072
X27686Y83820
T5
X5050Y75209
X5050Y91459
T6
X75819Y83075
X56769Y83075
X66299Y83075
X123449Y83075
X113919Y83075
X104399Y83075
X94869Y83075
X85349Y83075
T7
X131064Y83329
X136064Y83329
X146605Y83329
X141605Y83329
T8
X40640Y39370
X22708Y70079
X22708Y86563
X47041Y56871
X16993Y56871
X40640Y53340
X120314Y15875
X139714Y55595
X139714Y15875
X120314Y55595
T9
X52070Y66522
X39777Y66675
X39777Y69215
X39777Y74295
X39777Y71755
X39777Y81915
X39777Y84455
X39777Y79375
X39777Y76835
X49530Y66522
X46990Y66522
X44450Y66522
T10
X104147Y6859
X99147Y6859
X96647Y6859
X68540Y6909
X66040Y6909
X76040Y6909
X78540Y6909
X53133Y6943
X55633Y6943
X50633Y6943
X48133Y6943
X58133Y6943
X60633Y6943
X71040Y6909
X35353Y6977
X37853Y6977
X32853Y6977
X30353Y6977
X40353Y6977
X42853Y6977
X88813Y6866
X91313Y6866
X86313Y6866
X83813Y6866
X73540Y6909
X101647Y6859
X103395Y34310
X103395Y31810
X103395Y36810
X103395Y39310
T11
X100440Y12954
X97900Y12954
X95360Y12954
X92820Y12954
X90280Y12954
X87740Y12954
X85200Y12954
X82660Y12954
X77580Y12954
X49640Y61214
X72500Y12954
X69960Y12954
X67420Y12954
X64880Y12954
X62340Y12954
X59800Y12954
X55736Y12954
X53196Y12954
X50656Y12954
X48116Y12954
X45576Y12954
X43036Y12954
X40496Y12954
X37956Y12954
X35416Y12954
X32876Y12954
X42020Y61214
X44560Y61214
X47100Y61214
X52180Y61214
X75040Y12954
X54720Y61214
X57260Y61214
X59800Y61214
X64880Y61214
X67420Y61214
X69960Y61214
X72500Y61214
X75040Y61214
X77580Y61214
X80120Y61214
X82660Y61214
X87740Y61214
X90280Y61214
X92820Y61214
X95360Y61214
X97900Y61214
X100440Y61214
X102980Y61214
X105520Y61214
X110600Y56134
X108060Y56134
X110600Y53594
X108060Y53594
X110600Y51054
X108060Y51054
X110600Y48514
X108060Y48514
X108060Y45974
X110600Y45974
X108060Y43434
X110600Y43434
X108060Y40894
X110600Y40894
X108060Y38354
X110600Y38354
X108060Y25654
X108060Y35814
X110600Y35814
X108060Y33274
X110600Y33274
X108060Y30734
X110600Y30734
X108060Y28194
X110600Y28194
X110600Y25654
X108060Y23114
X110600Y23114
X108060Y20574
X110600Y20574
X108060Y18034
X110600Y18034
X108060Y15494
X110600Y15494
X108060Y12954
X110600Y12954
T12
X16990Y78889
X14450Y80159
X16990Y81429
X14450Y82699
X16990Y83969
X14450Y85239
X16990Y86509
X14450Y87779
T13
X17003Y69840
X17003Y67300
M30